<svg width="173" height="48" viewBox="0 0 173 48" fill="none" xmlns="http://www.w3.org/2000/svg">
<path d="M2.19727 47C1.10677 47 0.561523 46.4002 0.561523 45.2007V1.88623C0.561523 0.686686 1.10677 0.0869141 2.19727 0.0869141H30.8228C32.0223 0.0869141 32.6221 0.577637 32.6221 1.55908V3.97998C32.6221 4.96143 32.0223 5.45215 30.8228 5.45215H6.84277V19.9775H28.8599C30.0594 19.9775 30.6592 20.4683 30.6592 21.4497V23.8706C30.6592 24.8521 30.0594 25.3428 28.8599 25.3428H6.84277V41.6348H31.8042C33.0037 41.6348 33.6035 42.1255 33.6035 43.1069V45.5278C33.6035 46.5093 33.0037 47 31.8042 47H2.19727ZM43.7451 47C42.6546 47 42.1094 46.4002 42.1094 45.2007V1.88623C42.1094 0.686686 42.6546 0.0869141 43.7451 0.0869141H55.8169C65.0643 0.0869141 71.4873 2.13704 75.0859 6.2373C78.7064 10.3158 80.5166 16.0627 80.5166 23.478C80.5166 30.8934 78.7064 36.673 75.0859 40.8169C71.4873 44.939 65.0643 47 55.8169 47H43.7451ZM48.3906 41.6348H55.5225C62.7197 41.6348 67.5615 40.1081 70.0479 37.0547C72.556 34.0013 73.8101 29.4757 73.8101 23.478C73.8101 17.4803 72.556 12.9657 70.0479 9.93408C67.5615 6.90251 62.7197 5.38672 55.5225 5.38672H48.3906V41.6348ZM89.0879 29.105V1.88623C89.0879 0.686686 89.6331 0.0869141 90.7236 0.0869141H93.7334C94.8239 0.0869141 95.3691 0.686686 95.3691 1.88623V28.1235C95.3691 34.2303 96.2306 38.2215 97.9536 40.0972C99.6984 41.951 102.534 42.8779 106.459 42.8779C110.385 42.8779 113.21 41.951 114.933 40.0972C116.677 38.2215 117.55 34.2303 117.55 28.1235V1.88623C117.55 0.686686 118.095 0.0869141 119.186 0.0869141H122.195C123.286 0.0869141 123.831 0.686686 123.831 1.88623V29.105C123.831 36.0187 122.239 40.8932 119.055 43.7285C115.892 46.5638 111.694 47.9814 106.459 47.9814C101.225 47.9814 97.0158 46.5638 93.8315 43.7285C90.6691 40.8932 89.0879 36.0187 89.0879 29.105ZM136.59 47C135.499 47 134.954 46.4002 134.954 45.2007V1.88623C134.954 0.686686 135.499 0.0869141 136.59 0.0869141H139.6C140.69 0.0869141 141.235 0.686686 141.235 1.88623V21.1226C141.235 21.995 141.214 22.8674 141.17 23.7397H141.301L163.154 1.36279C163.983 0.512207 164.746 0.0869141 165.444 0.0869141H169.403C171.213 0.0869141 171.409 0.806641 169.992 2.24609L153.373 19.1924L170.875 44.8408C171.835 46.2803 171.638 47 170.286 47H166.295C165.335 47 164.572 46.5747 164.005 45.7241L149.054 23.6416L141.235 31.5913V45.2007C141.235 46.4002 140.69 47 139.6 47H136.59Z" fill="#722FEC"/>
</svg>
