<svg width="258" height="84" viewBox="0 0 258 84" fill="none" xmlns="http://www.w3.org/2000/svg">
<path d="M7.19727 67C6.10677 67 5.56152 66.4002 5.56152 65.2007V21.8862C5.56152 20.6867 6.10677 20.0869 7.19727 20.0869H35.8228C37.0223 20.0869 37.6221 20.5776 37.6221 21.5591V23.98C37.6221 24.9614 37.0223 25.4521 35.8228 25.4521H11.8428V39.9775H33.8599C35.0594 39.9775 35.6592 40.4683 35.6592 41.4497V43.8706C35.6592 44.8521 35.0594 45.3428 33.8599 45.3428H11.8428V61.6348H36.8042C38.0037 61.6348 38.6035 62.1255 38.6035 63.1069V65.5278C38.6035 66.5093 38.0037 67 36.8042 67H7.19727ZM48.7451 67C47.6546 67 47.1094 66.4002 47.1094 65.2007V21.8862C47.1094 20.6867 47.6546 20.0869 48.7451 20.0869H60.8169C70.0643 20.0869 76.4873 22.137 80.0859 26.2373C83.7064 30.3158 85.5166 36.0627 85.5166 43.478C85.5166 50.8934 83.7064 56.673 80.0859 60.8169C76.4873 64.939 70.0643 67 60.8169 67H48.7451ZM53.3906 61.6348H60.5225C67.7197 61.6348 72.5615 60.1081 75.0479 57.0547C77.556 54.0013 78.8101 49.4757 78.8101 43.478C78.8101 37.4803 77.556 32.9657 75.0479 29.9341C72.5615 26.9025 67.7197 25.3867 60.5225 25.3867H53.3906V61.6348ZM94.0879 49.105V21.8862C94.0879 20.6867 94.6331 20.0869 95.7236 20.0869H98.7334C99.8239 20.0869 100.369 20.6867 100.369 21.8862V48.1235C100.369 54.2303 101.231 58.2215 102.954 60.0972C104.698 61.951 107.534 62.8779 111.459 62.8779C115.385 62.8779 118.21 61.951 119.933 60.0972C121.677 58.2215 122.55 54.2303 122.55 48.1235V21.8862C122.55 20.6867 123.095 20.0869 124.186 20.0869H127.195C128.286 20.0869 128.831 20.6867 128.831 21.8862V49.105C128.831 56.0187 127.239 60.8932 124.055 63.7285C120.892 66.5638 116.694 67.9814 111.459 67.9814C106.225 67.9814 102.016 66.5638 98.8315 63.7285C95.6691 60.8932 94.0879 56.0187 94.0879 49.105ZM141.59 67C140.499 67 139.954 66.4002 139.954 65.2007V21.8862C139.954 20.6867 140.499 20.0869 141.59 20.0869H144.6C145.69 20.0869 146.235 20.6867 146.235 21.8862V41.1226C146.235 41.995 146.214 42.8674 146.17 43.7397H146.301L168.154 21.3628C168.983 20.5122 169.746 20.0869 170.444 20.0869H174.403C176.213 20.0869 176.409 20.8066 174.992 22.2461L158.373 39.1924L175.875 64.8408C176.835 66.2803 176.638 67 175.286 67H171.295C170.335 67 169.572 66.5747 169.005 65.7241L154.054 43.6416L146.235 51.5913V65.2007C146.235 66.4002 145.69 67 144.6 67H141.59Z" fill="#722FEC"/>
<path d="M253.562 62.5625H249.875V57.4062C249.872 55.1279 248.9 52.9436 247.172 51.3326C245.443 49.7215 243.1 48.8152 240.656 48.8125H229.594C227.15 48.8152 224.807 49.7215 223.078 51.3326C221.35 52.9436 220.378 55.1279 220.375 57.4062V62.5625H216.688V57.4062C216.691 54.2165 218.052 51.1584 220.472 48.9029C222.892 46.6474 226.172 45.3786 229.594 45.375H240.656C244.078 45.3786 247.358 46.6474 249.778 48.9029C252.198 51.1584 253.559 54.2165 253.562 57.4062V62.5625ZM214.844 21.3125C214.355 21.3125 213.886 21.4936 213.54 21.8159C213.194 22.1382 213 22.5754 213 23.0312V38.5H216.688V23.0312C216.688 22.5754 216.493 22.1382 216.147 21.8159C215.802 21.4936 215.333 21.3125 214.844 21.3125Z" fill="#722FEC"/>
<path d="M213.625 15V18.4375H222.844V30.4688C222.844 33.6596 224.204 36.7198 226.624 38.9761C229.044 41.2324 232.327 42.5 235.75 42.5C239.173 42.5 242.456 41.2324 244.876 38.9761C247.296 36.7198 248.656 33.6596 248.656 30.4688V18.4375H257.875V15H213.625ZM226.531 18.4375H244.969V23.5938H226.531V18.4375ZM235.75 39.0625C233.305 39.0625 230.96 38.1571 229.231 36.5454C227.503 34.9338 226.531 32.748 226.531 30.4688V27.0312H244.969V30.4688C244.969 32.748 243.997 34.9338 242.269 36.5454C240.54 38.1571 238.195 39.0625 235.75 39.0625Z" fill="#722FEC"/>
</svg>
